<?xml version="1.0" standalone="no"?>

<svg xmlns="http://www.w3.org/2000/svg" width="200" height="200">
  <path d="M 2 2 L 32 2 A 5 5 0 0 0 62 2 L 92 2 L 92 32 A 5 5 0 0 1 92 62 L 92 92 L 62 92 A 5 5 0 0 1 32 92 L 2 92 L 2 62 A 5 5 0 0 0 2 32 Z" fill="#000000" />
  <path d="M 92 2 L 122 2 A 5 5 0 0 0 152 2 L 182 2 L 182 32 A 5 5 0 0 1 182 62 L 182 92 L 152 92 A 5 5 0 0 1 122 92 L 92 92 L 92 62 A 5 5 0 0 0 92 32 Z" fill="#AAAAAA" />
  <path d="M 92 92 L 122 92 A 5 5 0 0 0 152 92 L 182 92 L 182 122 A 5 5 0 0 1 182 152 L 182 182 L 152 182 A 5 5 0 0 1 122 182 L 92 182 L 92 152 A 5 5 0 0 0 92 122 Z" fill="#777777" />
</svg>
