<?xml version="1.0" standalone="no"?>

<svg xmlns="http://www.w3.org/2000/svg" width="200" height="200">
  <path d="M 60 20 A 100 100 0 0 1 135 20" stroke="#000000" stroke-width="3" fill="none" />
  <path d="M 70 5 L 60 20 L 75 28" stroke="#000000" stroke-width="3" fill="none" />
  <path d="M 125 5 L 135 20 L 120 28" stroke="#000000" stroke-width="3" fill="none" />

  <path d="M 170 80 A 100 100 0 0 1 145 150" stroke="#000000" stroke-width="3" fill="none" />
  <path d="M 157 92 L 170 80 L 181 94" stroke="#000000" stroke-width="3" fill="none" />
  <path d="M 142 134 L 145 150 L 162 146" stroke="#000000" stroke-width="3" fill="none" />

  <path d="M 28 82 A 100 100 0 0 0 60 150" stroke="#000000" stroke-width="3" fill="none" />
  <path d="M 19 98 L 28 82 L 42 92" stroke="#000000" stroke-width="3" fill="none" />
  <path d="M 42 147 L 60 150 L 61 133" stroke="#000000" stroke-width="3" fill="none" />

  <rect x="5" y="15" rx="5" ry="5" width="20" height="40" fill="#000000" />
  <circle cx="15" cy="10" r="7" fill="#000000" />
  <rect x="90" y="150" rx="5" ry="5" width="20" height="40" fill="#000000" />
  <circle cx="100" cy="145" r="7" fill="#000000" />
  <rect x="170" y="15" rx="5" ry="5" width="20" height="40" fill="#000000" />
  <circle cx="180" cy="10" r="7" fill="#000000" />

  <g transform="translate(75,50)">
    <path d="M 0 0 L 30 0 L 50 20 L 50 60 L 0 60 Z" stroke="#000000" stroke-width="3" fill="none" />
    <path d="M 30 0 L 30 20 L 50 20" stroke="#000000" stroke-width="3" fill="none" />
    <g transform="translate(17,30)">
      <circle r="10" cx="0" cy="0" stroke="#000000" stroke-width="3" fill="none" />
      <line x1="7" y1="7" x2="20" y2="20" stroke="#000000" stroke-width="3" />
    </g>
    <rect x="12" y="5" width="10" height="10" fill="#AAAAAA" />
    <rect x="12" y="25" width="10" height="10" fill="#000000" />
    <rect x="12" y="45" width="10" height="10" fill="#777777" />
  </g>
</svg>
