<?xml version="1.0" standalone="no"?>

<svg xmlns="http://www.w3.org/2000/svg" width="200" height="200">
  <defs>
    <g id="person">
      <rect x="0" y="0" rx="5" ry="5" width="20" height="40" fill="#000000" />
      <circle cx="10" cy="-5" r="7" fill="#000000" />
    </g>

    <g id="arrow">
      <path d="M 0 0 A 100 100 0 0 1 75 0" stroke="#000000" stroke-width="3" fill="none" />
      <path d="M 10 -15 L 0 0 L 15 8" stroke="#000000" stroke-width="3" fill="none" />
      <path d="M 65 -15 L 75 0 L 60 8" stroke="#000000" stroke-width="3" fill="none" />
    </g>
  </defs>

  <use x="60" y="20" href="#arrow" />
  <g transform="translate(170,80)">
    <use x="0" y="0" href="#arrow" transform="rotate(110)" />
  </g>

  <g transform="translate(60,150)">
    <use x="0" y="0" href="#arrow" transform="rotate(-115)" />
  </g>

  <use x="5" y="15" href="#person" />
  <use x="90" y="150" href="#person" />
  <use x="170" y="15" href="#person" />

  <g transform="translate(75,50)">
    <path d="M 0 0 L 30 0 L 50 20 L 50 60 L 0 60 Z" stroke="#000000" stroke-width="3" fill="none" />
    <path d="M 30 0 L 30 20 L 50 20" stroke="#000000" stroke-width="3" fill="none" />
    <g transform="translate(17,30)">
      <circle r="10" cx="0" cy="0" stroke="#000000" stroke-width="3" fill="none" />
      <line x1="7" y1="7" x2="20" y2="20" stroke="#000000" stroke-width="3" />
    </g>
    <rect x="12" y="5" width="10" height="10" fill="#AAAAAA" />
    <rect x="12" y="25" width="10" height="10" fill="#000000" />
    <rect x="12" y="45" width="10" height="10" fill="#777777" />
  </g>
</svg>
