<?xml version="1.0" standalone="no"?>

<svg xmlns="http://www.w3.org/2000/svg" width="500" height="500">
  <path d="M 5 50 L 495 50 L 495 15 A 15 15 0 0 0 480 5 L 10 5 A 15 15 0 0 0 5 20 Z" fill="#BBBBBB" />
  <rect x="5" y="5" width="490" height="490" stroke="#000000" stroke-width="5" fill="none" rx="15" ry="15" />
  <circle cx="470" cy="27" r="10" fill="#FF0000" />
  <circle cx="440" cy="27" r="10" fill="#00FF00" />
  <circle cx="410" cy="27" r="10" fill="#0000FF" />

  <g transform="translate(0,-15)">
    <rect x="25" y="100" width="450" height="375" fill="#DDDDDD" rx="50" ry="50" />
    <rect x="70" y="125" width="150" height="100" fill="#FFFFFF" rx="5" ry="5" />
    <rect x="70" y="250" width="150" height="100" fill="#FFFFFF" rx="5" ry="5" />
    <rect x="275" y="125" width="150" height="100" fill="#FFFFFF" rx="5" ry="5" />
    <rect x="275" y="250" width="150" height="100" fill="#FFFFFF" rx="5" ry="5" />

    <text x="90" y="190" font-family="Arial" font-size="40">
      ACGT
    </text>

    <text x="295" y="185" font-family="Arial" font-size="40">
      [1010]
    </text>

    <text x="80" y="310" font-family="Arial" font-size="25">
      k__Archaea
    </text>

    <rect x="310" y="280" width="20" height="40" fill="#FF0000" />
    <rect x="340" y="280" width="20" height="40" fill="#00FF00" />
    <rect x="370" y="280" width="20" height="40" fill="#0000FF" />

    <rect x="175" y="360" width="150" height="100"  fill="#FFFFFF" rx="5" ry="5" />

    <path d="M 250 370 L 270 400 L 255 395 L 255 415 L 245 415 L 245 395 L 230 400 Z" stroke="#000000" stroke-width="1" fill="#000000" transform="rotate(-25) translate(-200,100)"/>
  </g>
</svg>
